<?xml version="1.0" encoding="utf-8"?>
<!-- Generator: Adobe Illustrator 16.0.0, SVG Export Plug-In . SVG Version: 6.00 Build 0)  -->
<!DOCTYPE svg PUBLIC "-//W3C//DTD SVG 1.1//EN" "http://www.w3.org/Graphics/SVG/1.1/DTD/svg11.dtd">
<svg version="1.1" id="Layer_1" xmlns="http://www.w3.org/2000/svg" xmlns:xlink="http://www.w3.org/1999/xlink" x="0px" y="0px"
	 width="1920px" height="1080px" viewBox="0 0 1920 1080" enable-background="new 0 0 1920 1080" xml:space="preserve">
<g>
	<g>
		<path fill="#FFFFFF" d="M624.783,645.029c0,3.357-1.289,5.946-3.871,7.769c-2.58,1.821-6.268,2.732-11.057,2.732
			c-8.789,0-13.893-3.104-15.309-9.312l5.516-1.012c0.521,2.058,1.607,3.563,3.252,4.517s3.893,1.43,6.742,1.43
			c2.953,0,5.209-0.489,6.77-1.468s2.34-2.421,2.34-4.327c0-1.113-0.273-2.024-0.822-2.732c-0.549-0.709-1.328-1.291-2.34-1.746
			c-0.828-0.388-1.855-0.734-3.088-1.037c-1.23-0.304-2.648-0.633-4.25-0.987c-1.84-0.422-3.35-0.813-4.529-1.177
			c-1.182-0.362-2.143-0.742-2.885-1.139c-0.742-0.396-1.4-0.813-1.975-1.252c-0.979-0.776-1.732-1.717-2.264-2.821
			c-0.531-1.105-0.797-2.417-0.797-3.936c0-3.12,1.18-5.516,3.541-7.186s5.762-2.505,10.197-2.505c4.184,0,7.359,0.645,9.527,1.936
			c2.168,1.29,3.639,3.463,4.416,6.516l-5.566,0.886c-0.473-1.771-1.389-3.07-2.746-3.897c-1.357-0.826-3.26-1.239-5.705-1.239
			c-2.65,0-4.666,0.43-6.049,1.29s-2.074,2.151-2.074,3.872c0,1.046,0.273,1.906,0.822,2.581c0.547,0.675,1.346,1.248,2.391,1.72
			c0.996,0.456,3.096,1.038,6.301,1.746c1.467,0.338,2.852,0.675,4.15,1.013c1.299,0.337,2.471,0.733,3.518,1.189
			c0.707,0.286,1.369,0.628,1.986,1.024c0.615,0.396,1.15,0.839,1.605,1.328c0.709,0.76,1.262,1.649,1.658,2.67
			S624.783,643.68,624.783,645.029z"/>
		<path fill="#FFFFFF" d="M647.602,655.53c-3.947,0-6.967-1.219-9.059-3.656s-3.139-5.941-3.139-10.514
			c0-4.571,1.055-8.084,3.164-10.539c2.107-2.454,5.119-3.682,9.033-3.682c2.936,0,5.369,0.756,7.301,2.265
			c1.93,1.511,3.15,3.59,3.656,6.237l-5.518,0.354c-0.219-1.484-0.783-2.665-1.695-3.542c-0.91-0.877-2.209-1.316-3.896-1.316
			c-2.209,0-3.83,0.789-4.857,2.366c-1.029,1.577-1.543,4.146-1.543,7.705c0,3.475,0.539,6.06,1.619,7.755
			c1.078,1.695,2.697,2.543,4.857,2.543c1.535,0,2.816-0.434,3.846-1.303c1.029-0.868,1.662-2.188,1.898-3.96l5.439,0.304
			c-0.236,1.821-0.852,3.403-1.846,4.744c-0.996,1.341-2.283,2.383-3.859,3.125C651.426,655.159,649.625,655.53,647.602,655.53z"/>
		<path fill="#FFFFFF" d="M675.277,617.474v4.656h-5.414v-4.656H675.277z M675.277,627.646v27.378h-5.414v-27.378H675.277z"/>
		<path fill="#FFFFFF" d="M692.857,642.423c0,2.986,0.598,5.272,1.797,6.857c1.197,1.586,2.926,2.379,5.188,2.379
			c1.736,0,3.137-0.354,4.199-1.063c1.063-0.709,1.789-1.646,2.176-2.809l4.885,0.936c-1.738,4.538-5.525,6.807-11.361,6.807
			c-4.082,0-7.195-1.21-9.338-3.631c-2.143-2.42-3.213-5.992-3.213-10.716c0-4.521,1.08-7.991,3.238-10.412
			c2.16-2.421,5.23-3.632,9.211-3.632c3.998,0,7.014,1.244,9.047,3.732c2.031,2.488,3.049,6.187,3.049,11.096v0.455H692.857z
			 M706.293,638.628c-0.201-2.665-0.863-4.622-1.986-5.87c-1.121-1.249-2.703-1.873-4.744-1.873c-2.023,0-3.617,0.684-4.781,2.05
			s-1.789,3.264-1.873,5.693H706.293z"/>
		<path fill="#FFFFFF" d="M729.086,639.564v15.46h-5.416v-21.432c0-1.569-0.012-2.83-0.037-3.783s-0.063-1.674-0.113-2.163h5.111
			c0.033,0.287,0.066,0.717,0.1,1.29c0.035,0.573,0.064,1.189,0.09,1.848c0.025,0.657,0.047,1.257,0.063,1.796h0.076
			c1.029-1.956,2.244-3.353,3.645-4.188c1.398-0.835,3.111-1.253,5.137-1.253c2.969,0,5.174,0.811,6.615,2.43
			c1.443,1.619,2.164,4.116,2.164,7.489v17.966h-5.414v-16.7c0-2.547-0.414-4.36-1.24-5.44c-0.826-1.079-2.211-1.619-4.15-1.619
			c-2.023,0-3.635,0.746-4.832,2.239C729.684,634.997,729.086,637.017,729.086,639.564z"/>
		<path fill="#FFFFFF" d="M770.4,655.53c-3.947,0-6.967-1.219-9.059-3.656s-3.139-5.941-3.139-10.514
			c0-4.571,1.055-8.084,3.164-10.539c2.107-2.454,5.119-3.682,9.033-3.682c2.936,0,5.369,0.756,7.301,2.265
			c1.93,1.511,3.15,3.59,3.656,6.237l-5.518,0.354c-0.219-1.484-0.783-2.665-1.695-3.542c-0.91-0.877-2.209-1.316-3.896-1.316
			c-2.209,0-3.83,0.789-4.857,2.366c-1.029,1.577-1.543,4.146-1.543,7.705c0,3.475,0.539,6.06,1.619,7.755
			c1.078,1.695,2.697,2.543,4.857,2.543c1.535,0,2.816-0.434,3.846-1.303c1.029-0.868,1.662-2.188,1.898-3.96l5.439,0.304
			c-0.236,1.821-0.852,3.403-1.846,4.744c-0.996,1.341-2.283,2.383-3.859,3.125C774.225,655.159,772.424,655.53,770.4,655.53z"/>
		<path fill="#FFFFFF" d="M796.963,642.423c0,2.986,0.598,5.272,1.797,6.857c1.197,1.586,2.926,2.379,5.188,2.379
			c1.736,0,3.137-0.354,4.199-1.063c1.063-0.709,1.789-1.646,2.176-2.809l4.885,0.936c-1.738,4.538-5.525,6.807-11.361,6.807
			c-4.082,0-7.195-1.21-9.338-3.631c-2.143-2.42-3.213-5.992-3.213-10.716c0-4.521,1.08-7.991,3.238-10.412
			c2.16-2.421,5.23-3.632,9.211-3.632c3.998,0,7.014,1.244,9.047,3.732c2.031,2.488,3.049,6.187,3.049,11.096v0.455H796.963z
			 M810.398,638.628c-0.201-2.665-0.863-4.622-1.986-5.87c-1.121-1.249-2.703-1.873-4.744-1.873c-2.023,0-3.617,0.684-4.781,2.05
			s-1.789,3.264-1.873,5.693H810.398z"/>
		<path fill="#FFFFFF" d="M834.229,648.749v6.275h-5.719v-6.275H834.229z"/>
		<path fill="#FFFFFF" d="M897.729,645.029c0,3.357-1.291,5.946-3.871,7.769c-2.582,1.821-6.268,2.732-11.059,2.732
			c-8.789,0-13.891-3.104-15.309-9.312l5.516-1.012c0.523,2.058,1.607,3.563,3.252,4.517s3.893,1.43,6.744,1.43
			c2.951,0,5.207-0.489,6.768-1.468s2.342-2.421,2.342-4.327c0-1.113-0.275-2.024-0.822-2.732c-0.549-0.709-1.33-1.291-2.342-1.746
			c-0.826-0.388-1.855-0.734-3.086-1.037c-1.232-0.304-2.648-0.633-4.252-0.987c-1.838-0.422-3.348-0.813-4.529-1.177
			c-1.18-0.362-2.143-0.742-2.885-1.139c-0.742-0.396-1.4-0.813-1.973-1.252c-0.979-0.776-1.734-1.717-2.266-2.821
			c-0.531-1.105-0.797-2.417-0.797-3.936c0-3.12,1.182-5.516,3.543-7.186s5.76-2.505,10.197-2.505c4.184,0,7.359,0.645,9.527,1.936
			c2.166,1.29,3.639,3.463,4.414,6.516l-5.566,0.886c-0.473-1.771-1.387-3.07-2.746-3.897c-1.357-0.826-3.26-1.239-5.705-1.239
			c-2.648,0-4.664,0.43-6.047,1.29c-1.385,0.86-2.076,2.151-2.076,3.872c0,1.046,0.275,1.906,0.822,2.581
			c0.549,0.675,1.346,1.248,2.393,1.72c0.994,0.456,3.096,1.038,6.301,1.746c1.467,0.338,2.85,0.675,4.148,1.013
			c1.299,0.337,2.471,0.733,3.518,1.189c0.709,0.286,1.371,0.628,1.986,1.024s1.152,0.839,1.607,1.328
			c0.707,0.76,1.26,1.649,1.656,2.67S897.729,643.68,897.729,645.029z"/>
		<path fill="#FFFFFF" d="M933.805,641.209c0,4.706-0.865,8.271-2.594,10.69c-1.729,2.421-4.271,3.631-7.629,3.631
			c-4.133,0-6.941-1.594-8.426-4.782h-0.127c0.068,0.236,0.102,1.704,0.102,4.403v10.627h-5.389v-32.313
			c0-1.366-0.018-2.534-0.051-3.505c-0.035-0.97-0.076-1.741-0.127-2.314h5.238c0.033,0.118,0.07,0.451,0.113,0.999
			c0.041,0.549,0.08,1.151,0.113,1.81c0.033,0.657,0.051,1.197,0.051,1.619h0.102c0.793-1.687,1.881-2.931,3.264-3.732
			c1.383-0.801,3.146-1.202,5.289-1.202c3.322,0,5.832,1.16,7.527,3.479S933.805,636.469,933.805,641.209z M928.137,641.284
			c0-3.575-0.498-6.165-1.492-7.768c-0.996-1.603-2.557-2.404-4.682-2.404c-2.295,0-4.01,0.853-5.148,2.556
			c-1.139,1.704-1.709,4.344-1.709,7.92c0,3.374,0.549,5.896,1.645,7.566s2.816,2.505,5.162,2.505c2.143,0,3.715-0.813,4.719-2.442
			C927.635,647.59,928.137,644.945,928.137,641.284z"/>
		<path fill="#FFFFFF" d="M949.992,642.423c0,2.986,0.598,5.272,1.797,6.857c1.197,1.586,2.926,2.379,5.188,2.379
			c1.736,0,3.137-0.354,4.199-1.063c1.063-0.709,1.789-1.646,2.176-2.809l4.885,0.936c-1.738,4.538-5.525,6.807-11.361,6.807
			c-4.082,0-7.195-1.21-9.338-3.631c-2.143-2.42-3.213-5.992-3.213-10.716c0-4.521,1.08-7.991,3.238-10.412
			c2.16-2.421,5.23-3.632,9.211-3.632c3.998,0,7.014,1.244,9.047,3.732c2.031,2.488,3.049,6.187,3.049,11.096v0.455H949.992z
			 M963.428,638.628c-0.201-2.665-0.863-4.622-1.986-5.87c-1.121-1.249-2.703-1.873-4.744-1.873c-2.023,0-3.617,0.684-4.781,2.05
			s-1.789,3.264-1.873,5.693H963.428z"/>
		<path fill="#FFFFFF" d="M985.031,642.423c0,2.986,0.6,5.272,1.797,6.857c1.197,1.586,2.928,2.379,5.188,2.379
			c1.738,0,3.139-0.354,4.201-1.063c1.063-0.709,1.787-1.646,2.176-2.809l4.883,0.936c-1.736,4.538-5.523,6.807-11.361,6.807
			c-4.082,0-7.193-1.21-9.336-3.631c-2.143-2.42-3.215-5.992-3.215-10.716c0-4.521,1.08-7.991,3.24-10.412
			c2.158-2.421,5.229-3.632,9.209-3.632c3.998,0,7.014,1.244,9.047,3.732s3.049,6.187,3.049,11.096v0.455H985.031z M998.469,638.628
			c-0.203-2.665-0.865-4.622-1.986-5.87c-1.123-1.249-2.703-1.873-4.744-1.873c-2.025,0-3.619,0.684-4.783,2.05
			s-1.789,3.264-1.873,5.693H998.469z"/>
		<path fill="#FFFFFF" d="M1033.457,655.024c-0.035-0.186-0.076-0.54-0.127-1.063s-0.094-1.097-0.127-1.721
			s-0.051-1.173-0.051-1.645h-0.1c-0.811,1.721-1.924,2.973-3.342,3.757c-1.416,0.785-3.17,1.177-5.262,1.177
			c-3.357,0-5.871-1.189-7.541-3.567c-1.67-2.379-2.506-5.887-2.506-10.526c0-4.706,0.865-8.266,2.594-10.678
			c1.73-2.412,4.273-3.619,7.629-3.619c2.041,0,3.758,0.389,5.15,1.164c1.391,0.776,2.492,1.982,3.303,3.619h0.049l-0.049-3.543
			v-10.906h5.414v31.807c0,1.231,0.012,2.324,0.037,3.277s0.064,1.775,0.115,2.467H1033.457z M1020.07,641.335
			c0,3.577,0.494,6.175,1.48,7.794c0.988,1.619,2.553,2.429,4.695,2.429c2.344,0,4.072-0.868,5.186-2.606
			c1.113-1.737,1.67-4.368,1.67-7.895c0-3.391-0.553-5.916-1.656-7.578c-1.105-1.661-2.822-2.492-5.15-2.492
			c-2.176,0-3.756,0.822-4.744,2.467C1020.564,635.098,1020.07,637.726,1020.07,641.335z"/>
		<path fill="#FFFFFF" d="M1058.273,648.749v6.275h-5.719v-6.275H1058.273z"/>
		<path fill="#FFFFFF" d="M1121.771,645.029c0,3.357-1.289,5.946-3.871,7.769c-2.58,1.821-6.268,2.732-11.057,2.732
			c-8.789,0-13.893-3.104-15.309-9.312l5.516-1.012c0.521,2.058,1.607,3.563,3.252,4.517s3.893,1.43,6.742,1.43
			c2.953,0,5.209-0.489,6.77-1.468s2.34-2.421,2.34-4.327c0-1.113-0.273-2.024-0.822-2.732c-0.549-0.709-1.328-1.291-2.34-1.746
			c-0.828-0.388-1.855-0.734-3.088-1.037c-1.23-0.304-2.648-0.633-4.25-0.987c-1.84-0.422-3.35-0.813-4.529-1.177
			c-1.182-0.362-2.143-0.742-2.885-1.139c-0.742-0.396-1.4-0.813-1.975-1.252c-0.979-0.776-1.732-1.717-2.264-2.821
			c-0.531-1.105-0.797-2.417-0.797-3.936c0-3.12,1.18-5.516,3.541-7.186s5.762-2.505,10.197-2.505c4.184,0,7.359,0.645,9.527,1.936
			c2.168,1.29,3.639,3.463,4.416,6.516l-5.566,0.886c-0.473-1.771-1.389-3.07-2.746-3.897c-1.357-0.826-3.26-1.239-5.705-1.239
			c-2.65,0-4.666,0.43-6.049,1.29s-2.074,2.151-2.074,3.872c0,1.046,0.273,1.906,0.822,2.581c0.547,0.675,1.346,1.248,2.391,1.72
			c0.996,0.456,3.096,1.038,6.301,1.746c1.467,0.338,2.852,0.675,4.15,1.013c1.299,0.337,2.471,0.733,3.518,1.189
			c0.707,0.286,1.369,0.628,1.986,1.024c0.615,0.396,1.15,0.839,1.605,1.328c0.709,0.76,1.262,1.649,1.658,2.67
			S1121.771,643.68,1121.771,645.029z"/>
		<path fill="#FFFFFF" d="M1151.117,650.09c-1.012,1.957-2.217,3.354-3.617,4.188s-3.121,1.252-5.162,1.252
			c-2.969,0-5.174-0.793-6.617-2.378c-1.441-1.586-2.164-4.1-2.164-7.541v-17.965h5.416v16.7c0,2.614,0.422,4.444,1.266,5.49
			c0.842,1.047,2.217,1.569,4.123,1.569c2.041,0,3.656-0.747,4.846-2.239c1.189-1.493,1.785-3.513,1.785-6.061v-15.46h5.414v21.432
			c0,1.451,0.014,2.674,0.039,3.669c0.023,0.995,0.07,1.755,0.139,2.277h-5.137c-0.051-0.455-0.098-1.071-0.139-1.847
			c-0.043-0.776-0.072-1.806-0.09-3.088H1151.117z"/>
		<path fill="#FFFFFF" d="M1180.564,655.53c-3.947,0-6.967-1.219-9.059-3.656s-3.137-5.941-3.137-10.514
			c0-4.571,1.055-8.084,3.162-10.539c2.109-2.454,5.121-3.682,9.033-3.682c2.936,0,5.369,0.756,7.301,2.265
			c1.932,1.511,3.15,3.59,3.656,6.237l-5.516,0.354c-0.221-1.484-0.785-2.665-1.695-3.542c-0.912-0.877-2.211-1.316-3.896-1.316
			c-2.211,0-3.83,0.789-4.859,2.366s-1.543,4.146-1.543,7.705c0,3.475,0.539,6.06,1.619,7.755s2.699,2.543,4.859,2.543
			c1.533,0,2.816-0.434,3.846-1.303c1.029-0.868,1.66-2.188,1.896-3.96l5.441,0.304c-0.236,1.821-0.852,3.403-1.848,4.744
			s-2.281,2.383-3.859,3.125C1184.391,655.159,1182.59,655.53,1180.564,655.53z"/>
		<path fill="#FFFFFF" d="M1213.656,655.53c-3.947,0-6.967-1.219-9.059-3.656s-3.139-5.941-3.139-10.514
			c0-4.571,1.055-8.084,3.164-10.539c2.107-2.454,5.119-3.682,9.033-3.682c2.936,0,5.369,0.756,7.301,2.265
			c1.93,1.511,3.15,3.59,3.656,6.237l-5.518,0.354c-0.219-1.484-0.783-2.665-1.695-3.542c-0.91-0.877-2.209-1.316-3.896-1.316
			c-2.209,0-3.83,0.789-4.857,2.366c-1.029,1.577-1.543,4.146-1.543,7.705c0,3.475,0.539,6.06,1.619,7.755
			c1.078,1.695,2.697,2.543,4.857,2.543c1.535,0,2.816-0.434,3.846-1.303c1.029-0.868,1.662-2.188,1.898-3.96l5.439,0.304
			c-0.236,1.821-0.852,3.403-1.846,4.744c-0.996,1.341-2.283,2.383-3.859,3.125C1217.48,655.159,1215.68,655.53,1213.656,655.53z"/>
		<path fill="#FFFFFF" d="M1240.219,642.423c0,2.986,0.598,5.272,1.797,6.857c1.197,1.586,2.926,2.379,5.188,2.379
			c1.736,0,3.137-0.354,4.199-1.063c1.063-0.709,1.789-1.646,2.176-2.809l4.885,0.936c-1.738,4.538-5.525,6.807-11.361,6.807
			c-4.082,0-7.195-1.21-9.338-3.631c-2.143-2.42-3.213-5.992-3.213-10.716c0-4.521,1.08-7.991,3.238-10.412
			c2.16-2.421,5.23-3.632,9.211-3.632c3.998,0,7.014,1.244,9.047,3.732c2.031,2.488,3.049,6.187,3.049,11.096v0.455H1240.219z
			 M1253.654,638.628c-0.201-2.665-0.863-4.622-1.986-5.87c-1.121-1.249-2.703-1.873-4.744-1.873c-2.023,0-3.617,0.684-4.781,2.05
			s-1.789,3.264-1.873,5.693H1253.654z"/>
		<path fill="#FFFFFF" d="M1292.363,647.307c0,2.615-1.012,4.64-3.037,6.073c-2.023,1.434-4.842,2.15-8.451,2.15
			c-3.525,0-6.236-0.573-8.135-1.721c-1.898-1.146-3.143-2.926-3.732-5.339l4.758-0.835c0.387,1.4,1.129,2.421,2.227,3.062
			c1.096,0.642,2.723,0.962,4.883,0.962c2.209,0,3.82-0.32,4.834-0.962c1.012-0.641,1.518-1.619,1.518-2.935
			c0-1.013-0.367-1.826-1.102-2.442c-0.732-0.615-1.943-1.134-3.631-1.556c-1.754-0.438-3.191-0.81-4.314-1.113
			c-1.121-0.304-2.016-0.578-2.682-0.822c-0.666-0.245-1.201-0.477-1.607-0.696c-1.213-0.658-2.15-1.476-2.809-2.454
			s-0.986-2.185-0.986-3.619c0-2.53,0.928-4.474,2.783-5.832c1.855-1.357,4.537-2.037,8.047-2.037c3.104,0,5.58,0.565,7.426,1.695
			c1.848,1.131,3.008,2.877,3.48,5.238l-4.834,0.557c-0.236-1.181-0.855-2.079-1.859-2.695c-1.004-0.615-2.408-0.923-4.213-0.923
			c-1.939,0-3.375,0.278-4.301,0.835c-0.93,0.557-1.393,1.426-1.393,2.605c0,0.878,0.291,1.595,0.873,2.151s1.658,1.012,3.227,1.366
			c2.107,0.489,4.078,1.012,5.908,1.568s3.184,1.139,4.061,1.746c0.979,0.675,1.734,1.489,2.266,2.442
			S1292.363,645.907,1292.363,647.307z"/>
		<path fill="#FFFFFF" d="M1325.453,647.307c0,2.615-1.012,4.64-3.035,6.073c-2.025,1.434-4.842,2.15-8.451,2.15
			c-3.527,0-6.238-0.573-8.137-1.721c-1.896-1.146-3.141-2.926-3.732-5.339l4.758-0.835c0.389,1.4,1.131,2.421,2.227,3.062
			c1.096,0.642,2.725,0.962,4.885,0.962c2.209,0,3.82-0.32,4.832-0.962c1.012-0.641,1.518-1.619,1.518-2.935
			c0-1.013-0.367-1.826-1.1-2.442c-0.734-0.615-1.945-1.134-3.631-1.556c-1.756-0.438-3.193-0.81-4.314-1.113
			c-1.123-0.304-2.016-0.578-2.682-0.822c-0.668-0.245-1.203-0.477-1.607-0.696c-1.215-0.658-2.15-1.476-2.809-2.454
			s-0.986-2.185-0.986-3.619c0-2.53,0.926-4.474,2.783-5.832c1.855-1.357,4.537-2.037,8.045-2.037c3.105,0,5.58,0.565,7.428,1.695
			c1.848,1.131,3.006,2.877,3.479,5.238l-4.832,0.557c-0.236-1.181-0.857-2.079-1.859-2.695c-1.004-0.615-2.408-0.923-4.215-0.923
			c-1.939,0-3.373,0.278-4.301,0.835s-1.391,1.426-1.391,2.605c0,0.878,0.289,1.595,0.871,2.151s1.658,1.012,3.227,1.366
			c2.109,0.489,4.078,1.012,5.908,1.568s3.184,1.139,4.063,1.746c0.977,0.675,1.732,1.489,2.264,2.442
			S1325.453,645.907,1325.453,647.307z"/>
	</g>
	<g>
		<path fill="#FFFFFF" d="M800.16,461.42v20.295c1.652-3.775,8.969-22.655,38.23-22.655c17.936,0,29.264,6.844,35.635,22.655
			c1.652-6.136,15.34-22.655,43.188-22.655c25.486,0,40.354,13.924,40.354,47.672v72.686h-34.453v-62.774
			c0-17.7-8.969-25.96-22.184-25.96c-14.869,0-23.127,10.148-23.127,25.488v63.246h-34.455v-62.774c0-17.7-7.553-25.96-21.004-25.96
			c-14.631,0-22.184,10.148-22.184,25.488v63.246h-34.455V461.42H800.16z"/>
		<path fill="#FFFFFF" d="M1033.324,459.06c33.512,0,60.887,27.14,61.123,60.651c0,2.36-0.236,4.72-0.473,7.08h-86.609
			c2.125,13.215,11.801,22.655,25.959,22.655c10.385,0,19.115-4.484,23.363-12.271l32.803,7.787
			c-9.203,21.947-31.15,36.815-56.166,36.815c-33.039,0-59.941-27.376-59.941-61.358
			C973.383,486.435,1000.285,459.06,1033.324,459.06z M1009.018,506.968h49.559c-4.012-10.621-13.217-17.701-25.252-17.701
			C1021.525,489.267,1012.793,496.347,1009.018,506.968z"/>
		<path fill="#FFFFFF" d="M1144.48,461.42v20.531c0.707-3.54,9.676-21.711,32.566-22.419c4.012-0.236,9.676,0,15.34,0.943
			l-4.957,34.219c-5.428-0.708-11.092-1.18-16.047-1.18c-16.756,0-26.902,5.901-26.902,24.78v61.122h-34.455V461.42H1144.48z"/>
		<path fill="#FFFFFF" d="M1202.297,534.106V461.42h34.691v61.595c0,16.52,4.955,27.14,21.004,27.14
			c17.227,0,21.238-12.744,21.238-25.487V461.42h34.455v117.997h-34.455v-16.048c-0.943,2.832-10.383,18.644-33.039,18.408
			C1224.717,581.777,1202.297,567.854,1202.297,534.106z"/>
		<path fill="#FFFFFF" d="M1377.877,459.06c34.691,0,49.559,19.352,49.559,40.12h-31.623c0-6.137-4.012-9.677-15.34-9.677
			c-11.563,0-15.811,3.54-15.811,8.023c0,6.845,10.383,8.497,23.127,10.621c19.824,3.304,45.074,7.787,45.311,35.398
			c-0.236,29.027-28.318,38.231-53.334,38.231c-25.723,0-49.795-9.912-49.795-38.703h31.387c0,8.023,7.789,11.327,18.408,11.092
			c15.104,0,17.699-6.136,17.936-9.912c0-6.136-8.023-8.023-18.172-9.676c-20.295-3.304-50.031-5.663-50.031-37.287
			C1329.498,470.151,1351.445,459.06,1377.877,459.06z"/>
		<path fill-rule="evenodd" clip-rule="evenodd" fill="#FFFFFF" d="M558.662,547.543c-3.688,2.098-7.852,3.286-12.262,3.286
			c-15.094,0-27.332-13.84-27.332-30.912s12.238-30.913,27.332-30.913c15.096,0,27.334,13.841,27.334,30.913
			c0,3.625-0.557,7.101-1.57,10.333h32.824c0.588-3.357,0.912-6.807,0.912-10.333c0-32.861-26.639-59.501-59.5-59.501
			c-32.859,0-59.5,26.64-59.5,59.501c0,32.86,26.641,59.5,59.5,59.5c4.204,0,8.305-0.442,12.262-1.271V547.543z"/>
		<path fill="#FFFFFF" d="M712.148,474.871v-60.649h34.455v165.195h-34.455v-13.451c-4.957,9.439-16.992,15.812-31.623,15.812
			c-30.68,0-55.459-27.611-55.459-61.358c0-33.984,24.779-61.359,55.459-61.359C695.156,459.06,707.191,465.195,712.148,474.871z
			 M712.148,520.419c0-19.115-11.801-29.028-25.488-29.028c-16.52,0-27.139,12.745-27.139,29.028
			c0,15.104,10.619,26.903,27.139,26.903C700.348,547.322,712.148,538.118,712.148,520.419z"/>
		<rect x="576.609" y="548.604" fill-rule="evenodd" clip-rule="evenodd" fill="#FFFFFF" width="29.5" height="28.688"/>
		<ellipse fill-rule="evenodd" clip-rule="evenodd" fill="#E9393B" cx="546.4" cy="519.917" rx="12.055" ry="13.636"/>
	</g>
</g>
</svg>
