<?xml version="1.0" encoding="UTF-8"?>
<svg id="Layer_1" xmlns="http://www.w3.org/2000/svg" version="1.1" viewBox="0 0 946.2 251.6">
  <!-- Generator: Adobe Illustrator 30.0.0, SVG Export Plug-In . SVG Version: 2.1.1 Build 123)  -->
  <defs>
    <style>
      .st0 {
        fill: none;
      }

      .st1, .st2, .st3 {
        fill: #3d3c3c;
      }

      .st1, .st4 {
        fill-rule: evenodd;
      }

      .st2 {
        font-family: Antapani-ExtraBold, Antapani;
        font-size: 236px;
        font-weight: 700;
      }

      .st5 {
        fill: #414042;
      }

      .st4 {
        fill: #e9393b;
      }

      .st6 {
        letter-spacing: 0em;
      }

      .st7 {
        letter-spacing: 0em;
      }
    </style>
  </defs>
  <text class="st2" transform="translate(-1549 175.7)"><tspan class="st7" x="0" y="0">Adm</tspan><tspan class="st6" x="513.5" y="0">e</tspan><tspan class="st7" x="646.4" y="0">ru</tspan><tspan x="870.1" y="0">s</tspan></text>
  <g>
    <path class="st5" d="M137.9,230.8c0,3.4-1.3,5.9-3.9,7.8-2.6,1.8-6.3,2.7-11.1,2.7-8.8,0-13.9-3.1-15.3-9.3l5.5-1c.5,2.1,1.6,3.6,3.3,4.5,1.6,1,3.9,1.4,6.7,1.4s5.2-.5,6.8-1.5c1.6-1,2.3-2.4,2.3-4.3s-.3-2-.8-2.7c-.5-.7-1.3-1.3-2.3-1.7-.8-.4-1.9-.7-3.1-1-1.2-.3-2.6-.6-4.2-1-1.8-.4-3.4-.8-4.5-1.2-1.2-.4-2.1-.7-2.9-1.1s-1.4-.8-2-1.3c-1-.8-1.7-1.7-2.3-2.8-.5-1.1-.8-2.4-.8-3.9,0-3.1,1.2-5.5,3.5-7.2,2.4-1.7,5.8-2.5,10.2-2.5s7.4.6,9.5,1.9c2.2,1.3,3.6,3.5,4.4,6.5l-5.6.9c-.5-1.8-1.4-3.1-2.7-3.9-1.4-.8-3.3-1.2-5.7-1.2s-4.7.4-6,1.3c-1.4.9-2.1,2.2-2.1,3.9s.3,1.9.8,2.6c.5.7,1.3,1.2,2.4,1.7,1,.5,3.1,1,6.3,1.7,1.5.3,2.9.7,4.2,1,1.3.3,2.5.7,3.5,1.2.7.3,1.4.6,2,1,.6.4,1.2.8,1.6,1.3.7.8,1.3,1.6,1.7,2.7.4,1,.6,2.2.6,3.6"/>
    <path class="st5" d="M160.7,241.3c-3.9,0-7-1.2-9.1-3.7-2.1-2.4-3.1-5.9-3.1-10.5s1.1-8.1,3.2-10.5c2.1-2.5,5.1-3.7,9-3.7s5.4.8,7.3,2.3c1.9,1.5,3.2,3.6,3.7,6.2l-5.5.4c-.2-1.5-.8-2.7-1.7-3.5-.9-.9-2.2-1.3-3.9-1.3s-3.8.8-4.9,2.4c-1,1.6-1.5,4.1-1.5,7.7s.5,6.1,1.6,7.8c1.1,1.7,2.7,2.5,4.9,2.5s2.8-.4,3.8-1.3c1-.9,1.7-2.2,1.9-4l5.4.3c-.2,1.8-.9,3.4-1.8,4.7-1,1.3-2.3,2.4-3.9,3.1-1.6.7-3.4,1.1-5.4,1.1"/>
    <path class="st5" d="M188.4,207.9h-5.4v-4.7h5.4v4.7ZM188.4,240.8h-5.4v-27.4h5.4v27.4Z"/>
    <path class="st5" d="M206,228.2c0,3,.6,5.3,1.8,6.9,1.2,1.6,2.9,2.4,5.2,2.4s3.1-.4,4.2-1.1c1.1-.7,1.8-1.6,2.2-2.8l4.9.9c-1.7,4.5-5.5,6.8-11.4,6.8s-7.2-1.2-9.3-3.6c-2.1-2.4-3.2-6-3.2-10.7s1.1-8,3.2-10.4c2.2-2.4,5.2-3.6,9.2-3.6s7,1.2,9,3.7c2,2.5,3,6.2,3,11.1v.5h-18.9ZM219.4,224.4c-.2-2.7-.9-4.6-2-5.9-1.1-1.2-2.7-1.9-4.7-1.9s-3.6.7-4.8,2c-1.2,1.4-1.8,3.3-1.9,5.7h13.4Z"/>
    <path class="st5" d="M242.2,225.3v15.5h-5.4v-21.4c0-1.6,0-2.8,0-3.8,0-1,0-1.7-.1-2.2h5.1c0,.3,0,.7,0,1.3,0,.6,0,1.2,0,1.8,0,.7,0,1.3,0,1.8h0c1-2,2.2-3.4,3.6-4.2,1.4-.8,3.1-1.3,5.1-1.3,3,0,5.2.8,6.6,2.4,1.4,1.6,2.2,4.1,2.2,7.5v18h-5.4v-16.7c0-2.5-.4-4.4-1.2-5.4-.8-1.1-2.2-1.6-4.2-1.6s-3.6.7-4.8,2.2c-1.2,1.5-1.8,3.5-1.8,6.1"/>
    <path class="st5" d="M283.5,241.3c-3.9,0-7-1.2-9.1-3.7-2.1-2.4-3.1-5.9-3.1-10.5s1.1-8.1,3.2-10.5c2.1-2.5,5.1-3.7,9-3.7s5.4.8,7.3,2.3c1.9,1.5,3.2,3.6,3.7,6.2l-5.5.4c-.2-1.5-.8-2.7-1.7-3.5-.9-.9-2.2-1.3-3.9-1.3s-3.8.8-4.9,2.4c-1,1.6-1.5,4.1-1.5,7.7s.5,6.1,1.6,7.8c1.1,1.7,2.7,2.5,4.9,2.5s2.8-.4,3.8-1.3c1-.9,1.7-2.2,1.9-4l5.4.3c-.2,1.8-.9,3.4-1.8,4.7-1,1.3-2.3,2.4-3.9,3.1-1.6.7-3.4,1.1-5.4,1.1"/>
    <path class="st5" d="M310.1,228.2c0,3,.6,5.3,1.8,6.9,1.2,1.6,2.9,2.4,5.2,2.4s3.1-.4,4.2-1.1c1.1-.7,1.8-1.6,2.2-2.8l4.9.9c-1.7,4.5-5.5,6.8-11.4,6.8s-7.2-1.2-9.3-3.6c-2.1-2.4-3.2-6-3.2-10.7s1.1-8,3.2-10.4c2.2-2.4,5.2-3.6,9.2-3.6s7,1.2,9,3.7c2,2.5,3,6.2,3,11.1v.5h-18.9ZM323.5,224.4c-.2-2.7-.9-4.6-2-5.9-1.1-1.2-2.7-1.9-4.7-1.9s-3.6.7-4.8,2c-1.2,1.4-1.8,3.3-1.9,5.7h13.4Z"/>
    <rect class="st5" x="341.6" y="234.5" width="5.7" height="6.3"/>
    <path class="st5" d="M410.8,230.8c0,3.4-1.3,5.9-3.9,7.8-2.6,1.8-6.3,2.7-11.1,2.7-8.8,0-13.9-3.1-15.3-9.3l5.5-1c.5,2.1,1.6,3.6,3.3,4.5,1.6,1,3.9,1.4,6.7,1.4s5.2-.5,6.8-1.5c1.6-1,2.3-2.4,2.3-4.3s-.3-2-.8-2.7c-.5-.7-1.3-1.3-2.3-1.7-.8-.4-1.9-.7-3.1-1-1.2-.3-2.6-.6-4.3-1-1.8-.4-3.3-.8-4.5-1.2-1.2-.4-2.1-.7-2.9-1.1s-1.4-.8-2-1.3c-1-.8-1.7-1.7-2.3-2.8-.5-1.1-.8-2.4-.8-3.9,0-3.1,1.2-5.5,3.5-7.2,2.4-1.7,5.8-2.5,10.2-2.5s7.4.6,9.5,1.9c2.2,1.3,3.6,3.5,4.4,6.5l-5.6.9c-.5-1.8-1.4-3.1-2.7-3.9-1.4-.8-3.3-1.2-5.7-1.2s-4.7.4-6,1.3c-1.4.9-2.1,2.2-2.1,3.9s.3,1.9.8,2.6c.5.7,1.3,1.2,2.4,1.7,1,.5,3.1,1,6.3,1.7,1.5.3,2.8.7,4.1,1,1.3.3,2.5.7,3.5,1.2.7.3,1.4.6,2,1,.6.4,1.2.8,1.6,1.3.7.8,1.3,1.6,1.7,2.7.4,1,.6,2.2.6,3.6"/>
    <path class="st5" d="M446.9,227c0,4.7-.9,8.3-2.6,10.7-1.7,2.4-4.3,3.6-7.6,3.6s-6.9-1.6-8.4-4.8h-.1c0,.2.1,1.7.1,4.4v10.6h-5.4v-32.3c0-1.4,0-2.5,0-3.5,0-1,0-1.7-.1-2.3h5.2c0,.1,0,.5.1,1,0,.5,0,1.2.1,1.8,0,.7,0,1.2,0,1.6h.1c.8-1.7,1.9-2.9,3.3-3.7,1.4-.8,3.1-1.2,5.3-1.2,3.3,0,5.8,1.2,7.5,3.5,1.7,2.3,2.5,5.9,2.5,10.6M441.2,227.1c0-3.6-.5-6.2-1.5-7.8-1-1.6-2.6-2.4-4.7-2.4s-4,.9-5.1,2.6c-1.1,1.7-1.7,4.3-1.7,7.9s.5,5.9,1.6,7.6c1.1,1.7,2.8,2.5,5.2,2.5s3.7-.8,4.7-2.4c1-1.6,1.5-4.3,1.5-7.9"/>
    <path class="st5" d="M463.1,228.2c0,3,.6,5.3,1.8,6.9,1.2,1.6,2.9,2.4,5.2,2.4s3.1-.4,4.2-1.1c1.1-.7,1.8-1.6,2.2-2.8l4.9.9c-1.7,4.5-5.5,6.8-11.4,6.8s-7.2-1.2-9.3-3.6c-2.1-2.4-3.2-6-3.2-10.7s1.1-8,3.2-10.4c2.2-2.4,5.2-3.6,9.2-3.6s7,1.2,9,3.7c2,2.5,3,6.2,3,11.1v.5h-18.9ZM476.5,224.4c-.2-2.7-.9-4.6-2-5.9-1.1-1.2-2.7-1.9-4.7-1.9s-3.6.7-4.8,2c-1.2,1.4-1.8,3.3-1.9,5.7h13.4Z"/>
    <path class="st5" d="M498.1,228.2c0,3,.6,5.3,1.8,6.9,1.2,1.6,2.9,2.4,5.2,2.4s3.1-.4,4.2-1.1c1.1-.7,1.8-1.6,2.2-2.8l4.9.9c-1.7,4.5-5.5,6.8-11.4,6.8s-7.2-1.2-9.3-3.6c-2.1-2.4-3.2-6-3.2-10.7s1.1-8,3.2-10.4c2.2-2.4,5.2-3.6,9.2-3.6s7,1.2,9,3.7c2,2.5,3,6.2,3,11.1v.5h-18.9ZM511.6,224.4c-.2-2.7-.9-4.6-2-5.9-1.1-1.2-2.7-1.9-4.7-1.9s-3.6.7-4.8,2c-1.2,1.4-1.8,3.3-1.9,5.7h13.4Z"/>
    <path class="st5" d="M546.6,240.8c0-.2,0-.5-.1-1.1,0-.5,0-1.1-.1-1.7,0-.6,0-1.2,0-1.6h0c-.8,1.7-1.9,3-3.3,3.8-1.4.8-3.2,1.2-5.3,1.2-3.4,0-5.9-1.2-7.5-3.6-1.7-2.4-2.5-5.9-2.5-10.5s.9-8.3,2.6-10.7c1.7-2.4,4.3-3.6,7.6-3.6s3.8.4,5.2,1.2c1.4.8,2.5,2,3.3,3.6h0v-3.5s0-10.9,0-10.9h5.4v31.8c0,1.2,0,2.3,0,3.3,0,1,0,1.8.1,2.5h-5.2ZM533.2,227.1c0,3.6.5,6.2,1.5,7.8,1,1.6,2.6,2.4,4.7,2.4s4.1-.9,5.2-2.6c1.1-1.7,1.7-4.4,1.7-7.9s-.6-5.9-1.7-7.6c-1.1-1.7-2.8-2.5-5.2-2.5s-3.8.8-4.7,2.5c-1,1.6-1.5,4.3-1.5,7.9"/>
    <rect class="st5" x="565.7" y="234.5" width="5.7" height="6.3"/>
    <path class="st5" d="M634.9,230.8c0,3.4-1.3,5.9-3.9,7.8-2.6,1.8-6.3,2.7-11.1,2.7-8.8,0-13.9-3.1-15.3-9.3l5.5-1c.5,2.1,1.6,3.6,3.3,4.5,1.6,1,3.9,1.4,6.7,1.4s5.2-.5,6.8-1.5c1.6-1,2.3-2.4,2.3-4.3s-.3-2-.8-2.7c-.5-.7-1.3-1.3-2.3-1.7-.8-.4-1.9-.7-3.1-1-1.2-.3-2.6-.6-4.2-1-1.8-.4-3.3-.8-4.5-1.2-1.2-.4-2.1-.7-2.9-1.1-.7-.4-1.4-.8-2-1.3-1-.8-1.7-1.7-2.3-2.8-.5-1.1-.8-2.4-.8-3.9,0-3.1,1.2-5.5,3.5-7.2,2.4-1.7,5.8-2.5,10.2-2.5s7.4.6,9.5,1.9c2.2,1.3,3.6,3.5,4.4,6.5l-5.6.9c-.5-1.8-1.4-3.1-2.7-3.9-1.4-.8-3.3-1.2-5.7-1.2s-4.7.4-6,1.3c-1.4.9-2.1,2.2-2.1,3.9s.3,1.9.8,2.6c.5.7,1.3,1.2,2.4,1.7,1,.5,3.1,1,6.3,1.7,1.5.3,2.9.7,4.2,1,1.3.3,2.5.7,3.5,1.2.7.3,1.4.6,2,1,.6.4,1.2.8,1.6,1.3.7.8,1.3,1.6,1.7,2.7.4,1,.6,2.2.6,3.6"/>
    <path class="st5" d="M664.2,235.9c-1,2-2.2,3.4-3.6,4.2-1.4.8-3.1,1.3-5.2,1.3-3,0-5.2-.8-6.6-2.4-1.4-1.6-2.2-4.1-2.2-7.5v-18h5.4v16.7c0,2.6.4,4.4,1.3,5.5.8,1,2.2,1.6,4.1,1.6s3.7-.7,4.8-2.2c1.2-1.5,1.8-3.5,1.8-6.1v-15.5h5.4v21.4c0,1.5,0,2.7,0,3.7,0,1,0,1.8.1,2.3h-5.1c0-.5,0-1.1-.1-1.8,0-.8,0-1.8,0-3.1h-.1Z"/>
    <path class="st5" d="M693.7,241.3c-3.9,0-7-1.2-9.1-3.7-2.1-2.4-3.1-5.9-3.1-10.5s1.1-8.1,3.2-10.5c2.1-2.5,5.1-3.7,9-3.7s5.4.8,7.3,2.3c1.9,1.5,3.2,3.6,3.7,6.2l-5.5.4c-.2-1.5-.8-2.7-1.7-3.5-.9-.9-2.2-1.3-3.9-1.3s-3.8.8-4.9,2.4c-1,1.6-1.5,4.1-1.5,7.7s.5,6.1,1.6,7.8c1.1,1.7,2.7,2.5,4.9,2.5s2.8-.4,3.8-1.3c1-.9,1.7-2.2,1.9-4l5.4.3c-.2,1.8-.9,3.4-1.8,4.7s-2.3,2.4-3.9,3.1c-1.6.7-3.4,1.1-5.4,1.1"/>
    <path class="st5" d="M726.8,241.3c-3.9,0-7-1.2-9.1-3.7-2.1-2.4-3.1-5.9-3.1-10.5s1.1-8.1,3.2-10.5c2.1-2.5,5.1-3.7,9-3.7s5.4.8,7.3,2.3c1.9,1.5,3.2,3.6,3.7,6.2l-5.5.4c-.2-1.5-.8-2.7-1.7-3.5-.9-.9-2.2-1.3-3.9-1.3s-3.8.8-4.9,2.4c-1,1.6-1.5,4.1-1.5,7.7s.5,6.1,1.6,7.8c1.1,1.7,2.7,2.5,4.9,2.5s2.8-.4,3.8-1.3c1-.9,1.7-2.2,1.9-4l5.4.3c-.2,1.8-.9,3.4-1.8,4.7-1,1.3-2.3,2.4-3.9,3.1-1.6.7-3.4,1.1-5.4,1.1"/>
    <path class="st5" d="M753.3,228.2c0,3,.6,5.3,1.8,6.9,1.2,1.6,2.9,2.4,5.2,2.4s3.1-.4,4.2-1.1c1.1-.7,1.8-1.6,2.2-2.8l4.9.9c-1.7,4.5-5.5,6.8-11.4,6.8s-7.2-1.2-9.3-3.6c-2.1-2.4-3.2-6-3.2-10.7s1.1-8,3.2-10.4c2.2-2.4,5.2-3.6,9.2-3.6s7,1.2,9,3.7c2,2.5,3,6.2,3,11.1v.5h-18.9ZM766.8,224.4c-.2-2.7-.9-4.6-2-5.9-1.1-1.2-2.7-1.9-4.7-1.9s-3.6.7-4.8,2c-1.2,1.4-1.8,3.3-1.9,5.7h13.4Z"/>
    <path class="st5" d="M805.5,233.1c0,2.6-1,4.6-3,6.1-2,1.4-4.8,2.2-8.5,2.2s-6.2-.6-8.1-1.7c-1.9-1.1-3.1-2.9-3.7-5.3l4.8-.8c.4,1.4,1.1,2.4,2.2,3.1,1.1.6,2.7,1,4.9,1s3.8-.3,4.8-1c1-.6,1.5-1.6,1.5-2.9s-.4-1.8-1.1-2.4c-.7-.6-1.9-1.1-3.6-1.6-1.8-.4-3.2-.8-4.3-1.1-1.1-.3-2-.6-2.7-.8-.7-.2-1.2-.5-1.6-.7-1.2-.7-2.2-1.5-2.8-2.5-.7-1-1-2.2-1-3.6,0-2.5.9-4.5,2.8-5.8,1.9-1.4,4.5-2,8-2s5.6.6,7.4,1.7c1.8,1.1,3,2.9,3.5,5.2l-4.8.6c-.2-1.2-.9-2.1-1.9-2.7-1-.6-2.4-.9-4.2-.9s-3.4.3-4.3.8c-.9.6-1.4,1.4-1.4,2.6s.3,1.6.9,2.2c.6.6,1.7,1,3.2,1.4,2.1.5,4.1,1,5.9,1.6,1.8.6,3.2,1.1,4.1,1.7,1,.7,1.7,1.5,2.3,2.4.5,1,.8,2.1.8,3.5"/>
    <path class="st5" d="M838.6,233.1c0,2.6-1,4.6-3,6.1-2,1.4-4.8,2.2-8.5,2.2s-6.2-.6-8.1-1.7c-1.9-1.1-3.1-2.9-3.7-5.3l4.8-.8c.4,1.4,1.1,2.4,2.2,3.1,1.1.6,2.7,1,4.9,1s3.8-.3,4.8-1c1-.6,1.5-1.6,1.5-2.9s-.4-1.8-1.1-2.4c-.7-.6-1.9-1.1-3.6-1.6-1.8-.4-3.2-.8-4.3-1.1-1.1-.3-2-.6-2.7-.8-.7-.2-1.2-.5-1.6-.7-1.2-.7-2.2-1.5-2.8-2.5-.7-1-1-2.2-1-3.6,0-2.5.9-4.5,2.8-5.8,1.9-1.4,4.5-2,8-2s5.6.6,7.4,1.7c1.8,1.1,3,2.9,3.5,5.2l-4.8.6c-.2-1.2-.9-2.1-1.9-2.7-1-.6-2.4-.9-4.2-.9s-3.4.3-4.3.8c-.9.6-1.4,1.4-1.4,2.6s.3,1.6.9,2.2c.6.6,1.7,1,3.2,1.4,2.1.5,4.1,1,5.9,1.6,1.8.6,3.2,1.1,4.1,1.7,1,.7,1.7,1.5,2.3,2.4.5,1,.8,2.1.8,3.5"/>
    <path class="st3" d="M313.3,47.2v20.3c1.7-3.8,9-22.7,38.2-22.7s29.3,6.8,35.6,22.7c1.7-6.1,15.3-22.7,43.2-22.7s40.4,13.9,40.4,47.7v72.7h-34.5v-62.8c0-17.7-9-26-22.2-26s-23.1,10.1-23.1,25.5v63.2h-34.5v-62.8c0-17.7-7.6-26-21-26s-22.2,10.1-22.2,25.5v63.2h-34.5V47.2h34.5Z"/>
    <path class="st3" d="M546.4,44.8c33.5,0,60.9,27.1,61.1,60.7,0,2.4-.2,4.7-.5,7.1h-86.6c2.1,13.2,11.8,22.7,26,22.7s19.1-4.5,23.4-12.3l32.8,7.8c-9.2,21.9-31.2,36.8-56.2,36.8s-59.9-27.4-59.9-61.4,26.9-61.4,59.9-61.4M522.1,92.7h49.6c-4-10.6-13.2-17.7-25.3-17.7s-20.5,7.1-24.3,17.7"/>
    <path class="st3" d="M657.6,47.2v20.5c.7-3.5,9.7-21.7,32.6-22.4,4-.2,9.7,0,15.3.9l-5,34.2c-5.4-.7-11.1-1.2-16-1.2-16.8,0-26.9,5.9-26.9,24.8v61.1h-34.5V47.2h34.5Z"/>
    <path class="st3" d="M715.4,119.9V47.2h34.7v61.6c0,16.5,5,27.1,21,27.1s21.2-12.7,21.2-25.5v-63.2h34.5v118h-34.5v-16c-.9,2.8-10.4,18.6-33,18.4-21.5,0-43.9-13.9-43.9-47.7"/>
    <path class="st3" d="M891,44.8c34.7,0,49.6,19.4,49.6,40.1h-31.6c0-6.1-4-9.7-15.3-9.7s-15.8,3.5-15.8,8c0,6.8,10.4,8.5,23.1,10.6,19.8,3.3,45.1,7.8,45.3,35.4-.2,29-28.3,38.2-53.3,38.2s-49.8-9.9-49.8-38.7h31.4c0,8,7.8,11.3,18.4,11.1,15.1,0,17.7-6.1,17.9-9.9,0-6.1-8-8-18.2-9.7-20.3-3.3-50-5.7-50-37.3s21.9-38.2,48.4-38.2"/>
    <path class="st1" d="M71.8,133.3c-3.7,2.1-7.9,3.3-12.3,3.3-15.1,0-27.3-13.8-27.3-30.9s12.2-30.9,27.3-30.9,27.3,13.8,27.3,30.9-.6,7.1-1.6,10.3h32.8c.6-3.4.9-6.8.9-10.3,0-32.9-26.6-59.5-59.5-59.5S0,72.8,0,105.7s26.6,59.5,59.5,59.5,8.3-.4,12.3-1.3v-30.6Z"/>
    <path class="st3" d="M225.2,60.6V0h34.5v165.2h-34.5v-13.5c-5,9.4-17,15.8-31.6,15.8-30.7,0-55.5-27.6-55.5-61.4s24.8-61.4,55.5-61.4,26.7,6.1,31.6,15.8M225.2,106.2c0-19.1-11.8-29-25.5-29s-27.1,12.7-27.1,29,10.6,26.9,27.1,26.9,25.5-9.2,25.5-26.9"/>
    <rect class="st3" x="89.7" y="134.4" width="29.5" height="28.7"/>
    <path class="st4" d="M59.5,119.3c-6.7,0-12.1-6.1-12.1-13.6s5.4-13.6,12.1-13.6,12.1,6.1,12.1,13.6-5.4,13.6-12.1,13.6"/>
  </g>
  <rect class="st0" x="-486.9" y="-414.2" width="1920" height="1080"/>
</svg>